<?xml version="1.0" encoding="UTF-8" standalone="no"?>
<svg width="450px" height="323px" viewBox="0 0 450 323" version="1.1" xmlns="http://www.w3.org/2000/svg" xmlns:xlink="http://www.w3.org/1999/xlink">
    <!-- Generator: Sketch 39.1 (31720) - http://www.bohemiancoding.com/sketch -->
    <title>TV</title>
    <desc>Created with Sketch.</desc>
    <defs>
        <filter x="-50%" y="-50%" width="200%" height="200%" filterUnits="objectBoundingBox" id="filter-1">
            <feOffset dx="0" dy="1" in="SourceAlpha" result="shadowOffsetOuter1"></feOffset>
            <feGaussianBlur stdDeviation="0.5" in="shadowOffsetOuter1" result="shadowBlurOuter1"></feGaussianBlur>
            <feColorMatrix values="0 0 0 0 0   0 0 0 0 0   0 0 0 0 0  0 0 0 0.25 0" type="matrix" in="shadowBlurOuter1" result="shadowMatrixOuter1"></feColorMatrix>
            <feMerge>
                <feMergeNode in="shadowMatrixOuter1"></feMergeNode>
                <feMergeNode in="SourceGraphic"></feMergeNode>
            </feMerge>
        </filter>
    </defs>
    <g id="Dashboard" stroke="none" stroke-width="1" fill="none" fill-rule="evenodd">
        <g id="TV" transform="translate(-24.000000, -31.000000)">
            <g id="Logo" transform="translate(24.000000, 31.000000)">
                <rect id="Rectangle-2-Copy-4" x="0" y="0" width="450" height="323"></rect>
                <g id="Group-2" transform="translate(54.276316, 81.000000)">
                    <path d="M135.264519,57.2651194 C146.42244,57.2651194 155.388843,46.9409777 162.569206,38.048462 C154.400246,26.5069245 147.425519,16.1906085 134.269163,16.1906085 C123.507067,16.1906085 115.742621,24.6884121 115.742621,37.4351176 C115.742621,48.156906 123.913512,57.2651194 134.869176,57.2651194 L135.264519,57.2651194 L135.264519,57.2651194 Z M244.072478,36.2221238 C244.072478,59.895555 227.128752,73.8572106 209.401583,73.8572106 C198.036577,73.8572106 185.487475,69.4043497 171.535608,50.1837794 C160.777856,63.7409407 149.814951,73.8572106 132.875087,73.8572106 C115.140194,73.8572106 98.8017917,59.2871017 98.8017917,37.2345823 C98.8017917,15.1776609 114.545491,0.00203339186 134.869176,0.00203339186 C150.809823,0.00203339186 160.95115,8.91166794 171.510507,23.0699459 C179.878828,13.5631076 191.460572,-0.192143426 210.594368,0.00203339186 C229.12429,0.204035976 244.072478,14.1666698 244.072478,36.0171866 L244.072478,36.2221238 L244.072478,36.2221238 Z M207.547963,16.3906547 C196.390042,16.3906547 187.423639,26.7147964 180.243276,35.6087794 C188.412719,47.1493387 195.386963,57.467122 208.542836,57.467122 C219.305415,57.467122 227.069379,48.9688293 227.069379,36.2221238 C227.069379,25.5003353 218.898971,16.3906547 207.943789,16.3906547 L207.547963,16.3906547 L207.547963,16.3906547 Z" id="Fill-9" fill="#D8262C"></path>
                    <g id="Group" transform="translate(0.000000, 67.722222)">
                        <g id="INFINUM_logo_web_horizontalni" transform="translate(0.000000, 38.277778)" fill="#3B3B3A">
                            <path d="M225.497857,17.2475056 L225.157254,17.2475056 L222.832957,22.5948906 L218.130748,33.1749414 C217.71761,34.1729027 217.291857,34.8436425 216.859796,35.1868415 C216.424581,35.533236 215.774913,35.7054746 214.907638,35.7054746 L211.791755,35.7054746 C210.845637,35.7054746 210.192815,35.533236 209.836444,35.1868415 C209.476919,34.8436425 209.070088,34.1729027 208.619105,33.1749414 L205.105852,25.6999785 L201.596383,17.9370991 L201.256727,17.9370991 L201.256727,39.2716761 C201.256727,39.8085237 201.161484,40.1338277 200.973522,40.2504643 C200.783668,40.3642248 200.444011,40.4207855 199.954868,40.4207855 L194.177554,40.4207855 C193.763469,40.4207855 193.442104,40.3642248 193.214405,40.2504643 C192.988914,40.1338277 192.875695,39.8085237 192.875695,39.2716761 L192.875695,4.13564341 C192.875695,2.679764 193.147861,1.64441516 193.69661,1.03055556 C194.247251,0.418293712 195.181385,0.111204134 196.505005,0.111204134 L199.79592,0.111204134 C200.852419,0.111204134 201.63612,0.311563307 202.14734,0.715157623 C202.656036,1.11683463 203.139818,1.81569509 203.594901,2.81365633 L209.776523,16.8445504 L213.289776,25.010385 L213.516844,25.010385 L217.373853,16.0389595 L223.157791,2.92741688 C223.611927,1.89334625 224.116524,1.16508699 224.662119,0.742319552 C225.207714,0.321469423 226.087604,0.111204134 227.298635,0.111204134 L230.07707,0.111204134 C231.288101,0.111204134 232.196375,0.370041344 232.798737,0.886437554 C233.404253,1.40379242 233.707011,2.39152799 233.707011,3.84772696 L233.707011,39.2716761 C233.707011,39.8085237 233.609245,40.1338277 233.423175,40.2504643 C233.230798,40.3642248 232.890195,40.4207855 232.39506,40.4207855 L226.749887,40.4207855 C226.333595,40.4207855 226.018222,40.3642248 225.810076,40.2504643 C225.60193,40.1338277 225.497857,39.8085237 225.497857,39.2716761 L225.497857,17.2475056" id="Fill-7"></path>
                            <path d="M184.379552,34.8446012 C184.379552,36.1867201 184.087516,37.3335926 183.502815,38.2932076 C182.917799,39.2515444 181.831655,39.9414574 180.246591,40.3642248 C179.491589,40.5546779 178.659635,40.699435 177.753254,40.7962593 C176.848134,40.8908467 175.943014,40.9582722 175.033479,40.9966184 C174.128359,41.034006 173.279691,41.0630853 172.48779,41.0832171 C171.693681,41.1004729 171.050005,41.110379 170.560862,41.110379 C167.314414,41.110379 164.531249,40.8346055 162.20979,40.2789044 C159.888331,39.7219251 157.989471,38.7744531 156.515734,37.4323342 C155.045151,36.088298 153.968784,34.3090319 153.289155,32.0827123 C152.608265,29.8592687 152.269555,27.06159 152.269555,23.6883979 L152.213103,1.37471318 C152.213103,0.915516796 152.326322,0.599479759 152.550867,0.426282515 C152.778567,0.254043928 153.100247,0.168403962 153.514647,0.168403962 L159.576427,0.168403962 C160.142837,0.168403962 160.510561,0.245096469 160.677394,0.399120586 C160.850218,0.55122739 160.935684,0.878448751 160.935684,1.37471318 L160.935684,24.2057528 C160.935684,25.776671 161.066879,27.1469104 161.330215,28.3167907 C161.596705,29.4879492 162.068818,30.452677 162.746239,31.2208803 C163.426183,31.9878053 164.339187,32.5518148 165.494082,32.9173824 C166.643616,33.2807132 168.125238,33.4631774 169.938947,33.4631774 C170.202283,33.4631774 170.560862,33.4529518 171.013106,33.4350568 C171.468189,33.4136469 171.968055,33.3967106 172.514596,33.3765788 C173.06303,33.3583643 173.628493,33.3200181 174.214771,33.2628183 C174.798211,33.2033816 175.337813,33.1177416 175.82948,33.0030224 L175.82948,1.37471318 C175.82948,0.915516796 175.93103,0.599479759 176.140753,0.426282515 C176.347322,0.254043928 176.678148,0.168403962 177.131339,0.168403962 L183.134144,0.168403962 C183.699608,0.168403962 184.049672,0.245096469 184.180867,0.399120586 C184.313008,0.55122739 184.379552,0.878448751 184.379552,1.37471318 L184.379552,34.8446012" id="Fill-6"></path>
                            <path d="M118.687083,15.4065659 L118.687083,39.212559 C118.687083,39.7139363 118.600671,40.0392403 118.430685,40.1910276 C118.261645,40.3450517 117.911896,40.4195073 117.381439,40.4195073 L111.436031,40.4195073 C110.981895,40.4195073 110.653907,40.3341869 110.44513,40.1619483 C110.236353,39.9897097 110.134173,39.6746314 110.134173,39.212559 L110.134173,4.13564341 C110.134173,2.64045909 110.397509,1.59616279 110.926074,1.00243497 C111.454638,0.408068045 112.417787,0.110245478 113.815835,0.110245478 L116.195007,0.110245478 C116.759209,0.110245478 117.242045,0.13932472 117.638784,0.197802756 C118.033315,0.254043928 118.383063,0.378988803 118.687083,0.571359173 C118.987318,0.762770887 119.271153,1.03055556 119.534489,1.37471318 C119.799087,1.72238587 120.10216,2.16240913 120.440871,2.69893712 L130.069202,17.5916632 L134.938243,25.3558208 L135.221448,25.3558208 L135.221448,1.31847201 C135.221448,0.858316968 135.306914,0.541960379 135.4769,0.368763135 C135.644678,0.197802756 135.996634,0.110245478 136.524253,0.110245478 L142.472499,0.110245478 C143.336936,0.110245478 143.774358,0.512881137 143.774358,1.31847201 L143.774358,36.4535461 C143.774358,37.6809457 143.527736,38.6485495 143.037016,39.3573161 C142.545981,40.0683196 141.566433,40.4195073 140.091434,40.4195073 L137.714785,40.4195073 C137.147429,40.4195073 136.667432,40.3923454 136.267855,40.3341869 C135.872377,40.2789044 135.522629,40.1526813 135.221448,39.9625478 C134.918374,39.7692188 134.637062,39.5113402 134.371833,39.1863557 C134.107551,38.860093 133.807316,38.4290172 133.46766,37.8902524 L124.406999,23.9763144 L118.969341,15.4065659 L118.687083,15.4065659" id="Fill-5"></path>
                            <path d="M100.648074,40.1910276 C100.479034,40.344093 100.112571,40.4207855 99.5442694,40.4207855 L93.5402021,40.4207855 C93.0870114,40.4207855 92.7561853,40.3351456 92.5502469,40.162907 C92.3417855,39.9906684 92.2364509,39.6746314 92.2364509,39.2135177 L92.2364509,1.37599139 C92.2364509,0.91455814 92.3417855,0.600438415 92.5502469,0.427241171 C92.7561853,0.254043928 93.0870114,0.168403962 93.5402021,0.168403962 L99.5442694,0.168403962 C100.112571,0.168403962 100.479034,0.246055125 100.648074,0.398161929 C100.820268,0.552186047 100.903526,0.877170543 100.903526,1.37599139 L100.903526,39.2135177 C100.903526,39.7126581 100.820268,40.040199 100.648074,40.1910276" id="Fill-4"></path>
                            <path d="M68.4456733,40.221385 C68.2958712,40.356236 67.9360309,40.4195073 67.3696213,40.4195073 L61.3674463,40.4195073 C60.9126787,40.4195073 60.5824834,40.3341869 60.3759142,40.1619483 C60.1671374,39.9897097 60.0640105,39.6746314 60.0640105,39.2135177 L60.0640105,10.7500525 C60.0640105,9.36830922 60.2406193,8.04760034 60.6023519,6.78089578 C60.9603,5.51610853 61.546578,4.38553316 62.3574015,3.38853058 C63.1691711,2.39152799 64.2345004,1.597441 65.5571739,1.00243497 C66.8789013,0.408068045 68.5213628,0.111204134 70.4858199,0.111204134 L84.9901302,0.111204134 C85.4799042,0.111204134 85.7930694,0.206750215 85.9261567,0.399120586 C86.0573518,0.589573643 86.1220032,0.954821705 86.1220032,1.49071059 L86.1220032,6.38017743 C86.1220032,6.87740052 86.0384294,7.21261068 85.8684434,7.38484927 C85.6975114,7.55708786 85.4035839,7.64368648 84.9901302,7.64368648 L72.3540884,7.64368648 C70.8794052,7.64368648 69.8995419,7.9798553 69.4066142,8.65059518 C68.9177864,9.32005685 68.6714802,10.1729414 68.6714802,11.2089294 L68.6714802,16.4991146 L82.724492,16.4991146 C83.1776828,16.4991146 83.469718,16.5857132 83.600913,16.7579518 C83.7340004,16.9298708 83.8018055,17.3037468 83.8018055,17.8795797 L83.8018055,22.3651326 C83.8018055,22.8256072 83.7242238,23.1604978 83.5731602,23.3710827 C83.4220967,23.5826262 83.1379458,23.6883979 82.724492,23.6883979 L68.6714802,23.6883979 L68.6714802,39.2135177 C68.6714802,39.7510043 68.5957908,40.0862145 68.4456733,40.221385" id="Fill-3"></path>
                            <path d="M26.4802768,15.4065659 L26.4802768,39.212559 C26.4802768,39.7139363 26.3948108,40.0392403 26.2248249,40.1910276 C26.0538928,40.3450517 25.7060366,40.4195073 25.1771564,40.4195073 L19.2301716,40.4195073 C18.7776117,40.4195073 18.4464702,40.3341869 18.2402164,40.1619483 C18.0327011,39.9897097 17.9289435,39.6746314 17.9289435,39.212559 L17.9289435,4.13564341 C17.9289435,2.64045909 18.1932259,1.59616279 18.7202138,1.00243497 C19.2494094,0.408068045 20.2125579,0.110245478 21.6096594,0.110245478 L23.9894625,0.110245478 C24.5539798,0.110245478 25.0365002,0.13932472 25.4335545,0.197802756 C25.8293474,0.254043928 26.1772036,0.378988803 26.4802768,0.571359173 C26.7827193,0.762770887 27.0656087,1.03055556 27.328945,1.37471318 C27.5938582,1.72238587 27.8969314,2.16240913 28.2356418,2.69893712 L37.8627118,17.5916632 L42.7333293,25.3558208 L43.016534,25.3558208 L43.016534,1.31847201 C43.016534,0.858316968 43.1010539,0.541960379 43.2700938,0.368763135 C43.4410258,0.197802756 43.788882,0.110245478 44.3183929,0.110245478 L50.2669546,0.110245478 C51.1304453,0.110245478 51.5666059,0.512881137 51.5666059,1.31847201 L51.5666059,36.4535461 C51.5666059,37.6809457 51.322192,38.6485495 50.8302104,39.3573161 C50.3413826,40.0683196 49.3605732,40.4195073 47.8868361,40.4195073 L45.5079791,40.4195073 C44.9415696,40.4195073 44.4606261,40.3923454 44.062941,40.3341869 C43.6674635,40.2789044 43.3167689,40.1526813 43.016534,39.9625478 C42.7144069,39.7692188 42.4312021,39.5113402 42.1672351,39.1863557 C41.9035834,38.860093 41.6017717,38.4290172 41.2617998,37.8902524 L32.2011394,23.9763144 L26.7644277,15.4065659 L26.4802768,15.4065659" id="Fill-2"></path>
                            <path d="M8.44442199,40.1910276 C8.27348993,40.344093 7.90576525,40.4207855 7.34030183,40.4207855 L1.33623454,40.4207855 C0.882728456,40.4207855 0.551902393,40.3351456 0.345648585,40.162907 C0.138133285,39.9906684 0.0331141436,39.6746314 0.0331141436,39.2135177 L0.0331141436,1.37599139 C0.0331141436,0.91455814 0.138133285,0.600438415 0.345648585,0.427241171 C0.551902393,0.254043928 0.882728456,0.168403962 1.33623454,0.168403962 L7.34030183,0.168403962 C7.90576525,0.168403962 8.27348993,0.246055125 8.44442199,0.398161929 C8.61409255,0.552186047 8.69892784,0.877170543 8.69892784,1.37599139 L8.69892784,39.2135177 C8.69892784,39.7126581 8.61409255,40.040199 8.44442199,40.1910276" id="Fill-1"></path>
                        </g>
                        <g id="logo" filter="url(#filter-1)" transform="translate(296.258529, 45.500425) rotate(5.000000) translate(-296.258529, -45.500425) translate(254.811161, 3.500425)">
                            <rect id="background" fill="#F7DF1E" x="5.68434189e-14" y="0" width="82.8191489" height="83.9166667"></rect>
                            <path d="M21.7761778,70.1268606 L28.1141432,66.2403867 C29.3368759,68.4370387 30.4491831,70.2955265 33.1171429,70.2955265 C35.6745127,70.2955265 37.286857,69.2818997 37.286857,65.3391151 L37.286857,38.5257421 L45.0697207,38.5257421 L45.0697207,65.450671 C45.0697207,73.6185599 40.3445925,77.3363679 33.45072,77.3363679 C27.224659,77.3363679 23.6106877,74.0691124 21.7761778,70.1261946" id="j" fill="#3B3B3A"></path>
                            <path d="M49.2971125,69.2818664 L55.6342563,65.5640584 C57.3024706,68.3244838 59.4705576,70.3523034 63.3063659,70.3523034 C66.5312187,70.3523034 68.5875655,68.7186257 68.5875655,66.46533 C68.5875655,63.761515 66.4751843,62.8037994 62.917083,61.2270319 L60.971819,60.3815382 C55.3565492,57.9597765 51.6316594,54.9179638 51.6316594,48.4963408 C51.6316594,42.5817143 56.0790805,38.075023 63.0284945,38.075023 C67.9762813,38.075023 71.5342183,39.8214554 74.0912595,44.3842576 L68.0314941,48.3271754 C66.6971856,45.9052472 65.2521229,44.9476981 63.0284945,44.9476981 C60.7491603,44.9476981 59.3036047,46.4122437 59.3036047,48.3271754 C59.3036047,50.6931592 60.7491603,51.6508748 64.0844386,53.115587 L66.0300313,53.9604147 C72.6457038,56.833395 76.3705937,59.7623198 76.3705937,66.3526086 C76.3705937,73.45056 70.8668997,77.3370339 63.4731544,77.3370339 C56.2460334,77.3370339 51.576118,73.8448352 49.2971125,69.2818664" id="s" fill="#3B3B3A"></path>
                        </g>
                        <ellipse id="Oval" fill="#3B3B3A" cx="241.192609" cy="75.0833333" rx="4.35890258" ry="4.41666667"></ellipse>
                    </g>
                </g>
            </g>
        </g>
    </g>
</svg>